<?xml version="1.0" encoding="UTF-8"?>
<svg width="700pt" height="700pt" version="1.1" viewBox="0 0 700 700" xmlns="http://www.w3.org/2000/svg" xmlns:xlink="http://www.w3.org/1999/xlink">
 <defs>
  <symbol id="w" overflow="visible">
   <path d="m0.03125 0h-0.015625-0.015625v-0.015625-0.015625h0.015625 0.015625-0.015625v0.015625 0.015625h0.015625v-0.015625z"/>
  </symbol>
  <symbol id="e" overflow="visible">
   <path d="m0.015625-0.015625v0.015625h-0.015625v-0.03125h0.015625v0.015625-0.015625z"/>
  </symbol>
  <symbol id="b" overflow="visible">
   <path d="m0.03125-0.015625h-0.015625v0.015625c0.0078125 0 0.015625-0.0039062 0.015625-0.015625v0.015625h-0.015625-0.015625v-0.015625l0.015625-0.015625v0.015625h0.015625z"/>
  </symbol>
  <symbol id="a" overflow="visible">
   <path d="m0.015625-0.015625v0.015625-0.015625zm0.015625 0v0.015625h-0.015625-0.015625v-0.015625h0.015625-0.015625v-0.015625h0.015625v0.015625h0.015625z"/>
  </symbol>
  <symbol id="d" overflow="visible">
   <path d="m0.015625-0.03125v0.015625 0.015625h-0.015625v-0.015625-0.015625z"/>
  </symbol>
  <symbol id="l" overflow="visible">
   <path d="m0.015625-0.015625v-0.015625h0.015625v0.03125h-0.015625-0.015625v-0.015625l0.015625-0.015625v0.015625zm0 0.015625v-0.015625 0.015625z"/>
  </symbol>
  <symbol id="k" overflow="visible">
   <path d="m0.015625 0v-0.015625 0.015625zm0-0.015625v-0.015625c0.0078125 0 0.015625 0.0078125 0.015625 0.015625v0.015625h-0.015625-0.015625v-0.03125h0.015625z"/>
  </symbol>
  <symbol id="j" overflow="visible">
   <path d="m0-0.03125h0.015625v0.015625-0.015625h0.015625l-0.015625 0.03125v0.015625h-0.015625v-0.015625h0.015625z"/>
  </symbol>
  <symbol id="i" overflow="visible">
   <path d="m0.015625-0.03125v0.015625 0.015625h0.015625v-0.015625c0-0.0078125-0.0078125-0.015625-0.015625-0.015625zm0 0h0.015625v0.015625 0.015625h-0.015625-0.015625v-0.015625-0.015625h0.015625z"/>
  </symbol>
  <symbol id="v" overflow="visible">
   <path d="m0-0.03125h0.015625v0.03125h-0.015625z"/>
  </symbol>
  <symbol id="f" overflow="visible">
   <path d="m0.03125-0.015625v0.015625h-0.015625v-0.015625 0.015625h-0.015625v-0.03125h0.015625v0.015625-0.015625c0.0078125 0 0.015625 0.0078125 0.015625 0.015625z"/>
  </symbol>
  <symbol id="h" overflow="visible">
   <path d="m0-0.03125h0.015625 0.015625v0.015625h-0.015625v0.015625h-0.015625zm0.015625 0v0.015625-0.015625z"/>
  </symbol>
  <symbol id="g" overflow="visible">
   <path d="m0.03125-0.03125v0.015625h-0.015625c0.0078125 0 0.015625 0.0078125 0.015625 0.015625h-0.015625-0.015625 0.015625v-0.015625h-0.015625l0.015625-0.015625h0.015625z"/>
  </symbol>
  <symbol id="c" overflow="visible">
   <path d="m0.015625-0.015625v0.015625-0.015625zm0-0.015625v0.015625h0.015625c0 0.011719-0.0078125 0.015625-0.015625 0.015625h-0.015625v-0.015625l0.015625-0.015625z"/>
  </symbol>
  <symbol id="u" overflow="visible">
   <path d="m0-0.03125h0.015625v0.015625-0.015625h0.015625l-0.015625 0.03125z"/>
  </symbol>
  <symbol id="t" overflow="visible">
   <path d="m0-0.03125h0.015625v0.015625-0.015625h0.015625l-0.015625 0.015625 0.015625 0.015625h-0.015625v-0.015625 0.015625h-0.015625z"/>
  </symbol>
  <symbol id="s" overflow="visible">
   <path d="m0.015625-0.03125v0.03125h-0.015625v-0.03125h0.015625z"/>
  </symbol>
  <symbol id="r" overflow="visible">
   <path d="m0.03125-0.015625v-0.015625c0.0078125 0 0.015625 0.0078125 0.015625 0.015625v0.015625h-0.015625v-0.015625 0.015625h-0.015625v-0.015625 0.015625h-0.015625v-0.03125h0.015625v0.015625-0.015625 0.015625h0.015625z"/>
  </symbol>
  <symbol id="q" overflow="visible">
   <path d="m0.03125-0.015625v0.015625h-0.015625v-0.015625 0.015625h-0.015625v-0.03125h0.015625v0.015625-0.015625c0.0078125 0 0.015625 0.0078125 0.015625 0.015625z"/>
  </symbol>
  <symbol id="p" overflow="visible">
   <path d="m0-0.03125h0.015625l0.015625 0.015625v-0.015625 0.03125l-0.015625-0.015625v0.015625h-0.015625z"/>
  </symbol>
  <symbol id="o" overflow="visible">
   <path d="m0-0.015625v-0.015625h0.015625v0.015625 0.015625-0.015625-0.015625h0.015625v0.03125h-0.015625-0.015625v-0.015625z"/>
  </symbol>
  <symbol id="n" overflow="visible">
   <path d="m0-0.03125h0.015625v0.03125h-0.015625v0.015625zm0 0h0.015625z"/>
  </symbol>
  <symbol id="m" overflow="visible">
   <path d="m0.03125-0.03125v0.015625h-0.015625v0.015625h0.015625-0.015625-0.015625v-0.015625l0.015625-0.015625h0.015625z"/>
  </symbol>
 </defs>
 <g>
  <path d="m386.05 187.03c-0.66406-0.21484-1.2695-0.625-1.7344-1.2031-1.2891-1.6055-1.0352-3.9492 0.57031-5.2344l212.7-171.21c1.6055-1.2891 3.9492-1.0352 5.2344 0.57031 0.60547 0.75781 0.86719 1.6797 0.8125 2.5742l-3.2852 223.04c-0.027343 2.0547-1.707 3.6953-3.7617 3.6758-0.26953 0-0.54297-0.039063-0.79297-0.09375l-73.844-14.867-44.93 49.168c-0.49609 0.60547-1.1836 1.0547-1.9961 1.25-1.9961 0.48438-4.0039-0.74609-4.4883-2.7422l-15.074-61.938-69.402-22.98v-0.007812zm100.35 91.27c-1.875-0.96875-4.1719-0.21484-5.0859 1.6875-0.86719 1.8203-0.14844 3.9961 1.6445 4.9297l1.2148 0.64453 1.1953 0.65234 1.168 0.66406 1.1484 0.67188 1.1211 0.67969 1.1016 0.69141 1.0742 0.69922 1.0547 0.69922 1.0273 0.71094 1.0078 0.71875 1.0156 0.75781c2.0898 1.5586 5.0781 0.57031 5.8242-1.9336 0.4375-1.5117-0.085938-3.0977-1.3438-4.043l-1.1094-0.82031-1.1016-0.78516-1.1289-0.77344-1.1484-0.76562-1.168-0.75781-1.1953-0.74609-1.2148-0.73828-1.2422-0.72656-1.2617-0.71875-1.2891-0.69922-1.3086-0.69141zm-386.72 265.71c-2.707 0.30859-4.1914 3.2852-2.8008 5.6289 0.76562 1.2617 2.1484 1.9492 3.6133 1.793l0.22266-0.027344 1.0938-0.12109 1.082-0.12891 1.0742-0.12891 1.0625-0.14062 1.0547-0.14062 1.0469-0.14844 2.0703-0.29688 1.0273-0.16016 1.0156-0.16016 1.0078-0.16797 1-0.16797 1.9766-0.35156 0.32812-0.066407c1.9023-0.36328 3.2031-2.1094 3.0156-4.043-0.22266-2.1836-2.2578-3.707-4.4141-3.293l-0.28906 0.054687-0.94141 0.16797-0.95312 0.16797-0.96094 0.16797-0.96875 0.16016-0.98047 0.16016-1.9766 0.29688-1 0.14062-1.0078 0.14062-1.0156 0.12891-1.0273 0.12891-1.0352 0.12891-1.0469 0.12109-1.0547 0.12109-0.22266 0.027344zm35.523-7.7188c-1.7539 0.64453-2.7734 2.4844-2.3711 4.3008 0.49609 2.2109 2.7891 3.4805 4.9297 2.707l0.4375-0.16016 0.78516-0.28906 0.77344-0.28906 0.77344-0.29688 0.76563-0.29688 0.75781-0.30859 1.4922-0.61719 0.73828-0.31641 0.72656-0.31641 1.4375-0.65625 0.71094-0.32812 0.69922-0.33594 1.3828-0.67188 0.67969-0.34375 0.67187-0.34375 0.66406-0.34375 0.65234-0.34375c2.2227-1.2148 2.6328-4.2109 0.8125-5.9727-1.1836-1.1289-2.9219-1.3711-4.3672-0.59766l-0.59766 0.31641-1.2344 0.63281-0.625 0.31641-0.63281 0.31641-1.2891 0.61719-0.65234 0.30859-0.66406 0.29688-1.3438 0.59375-0.67969 0.28906-0.69141 0.28906-0.69922 0.28906-1.4219 0.5625-0.71875 0.28125-0.72656 0.26953-0.73828 0.26953-0.4375 0.16016zm30.07-18.461c-1.2969 1.3828-1.3711 3.4805-0.16797 4.9453 1.4453 1.7266 4.0312 1.8203 5.5898 0.1875l0.24219-0.25391 0.85938-0.91406 0.42187-0.46484 0.82031-0.92969 0.40234-0.47656 0.78125-0.95312 0.38281-0.47656 0.375-0.47656 0.375-0.48438 0.72656-0.96875 0.35547-0.48438 0.6875-0.99219 0.67188-0.99219 0.32812-0.49609 0.63281-1.0078 0.61719-1.0078 0.29688-0.50391 0.28906-0.51172 0.17578-0.30859c1.3242-2.4062-0.28125-5.3477-3.0234-5.543-1.4453-0.085938-2.8008 0.64453-3.5078 1.9141l-0.14062 0.24219-0.52344 0.89844-0.26953 0.44922-0.26953 0.4375-0.5625 0.875-0.57812 0.875-0.29688 0.4375-0.29688 0.42969-0.61719 0.85938-0.31641 0.42969-0.65625 0.85938-0.67188 0.84375-0.6875 0.84375-0.35547 0.42188-0.72656 0.82031-0.75 0.82031-0.38281 0.41016-0.24219 0.25391zm14.98-31.035c-0.375 2.6406 2.043 4.7969 4.6289 4.1445 1.4648-0.38281 2.5469-1.5859 2.7617-3.0898l0.046875-0.33594 0.14844-1.1016 0.13281-1.1016 0.16406-1.6523 0.09375-1.1016 0.078125-1.1016 0.082032-1.6523 0.039062-1.1016 0.023438-1.6523v-1.1016l-0.023438-1.6523-0.039062-1.1016-0.027344-0.55078-0.019532-0.32812c-0.12109-2.2773-2.2227-3.9102-4.4609-3.4609-1.8203 0.375-3.0898 1.9961-2.9961 3.8555l0.019531 0.28125 0.058594 1.5117 0.023438 1.5117v1.0078l-0.023438 1.5117-0.058594 1.5117-0.082031 1.5117-0.078125 1.0078-0.09375 1.0078-0.046875 0.49609-0.10938 0.99219-0.19922 1.4883-0.046876 0.33594zm-2.9688-35.363c0.73828 2.5195 3.7422 3.5195 5.8516 1.9336 1.2305-0.95313 1.7539-2.5117 1.3242-4.0039l-0.12891-0.4375-0.29688-1.0234-0.48047-1.5352-0.32031-1.0078-0.67188-2.0156-0.16797-0.49609-0.87891-2.4805-0.48438-1.3086-0.59375-1.625-0.28906-0.8125-0.28906-0.80078-0.26953-0.78516c-0.83984-2.3711-3.6875-3.2578-5.7305-1.793-1.3359 0.98047-1.8555 2.6797-1.3242 4.2461l0.28906 0.8125 0.59375 1.6797 0.61719 1.6797 0.48438 1.3086 0.16797 0.45703 0.67188 1.8594 0.48047 1.3945 0.32031 0.95312 0.59375 1.9062 0.28125 0.95313 0.14062 0.48437 0.12891 0.4375zm-10.922-35.969c0.55078 2.6133 3.5547 3.8359 5.7695 2.332 1.2422-0.85938 1.8398-2.3438 1.5391-3.8281l-0.066407-0.29688-0.14844-0.71875-0.28125-1.4375-0.25781-1.4219-0.24219-1.4219-0.22656-1.3984-0.10156-0.69922-0.20312-1.3828-0.09375-0.69141-0.09375-0.67969-0.17188-1.3594-0.074219-0.67969-0.074219-0.67188-0.066406-0.67188-0.074219-0.79297c-0.25391-2.6992-3.1719-4.2461-5.543-2.9297-1.2891 0.72656-2.0156 2.1094-1.8867 3.5859l0.085937 0.87891 0.074219 0.71094 0.074219 0.71875 0.17188 1.4375 0.1875 1.4531 0.20312 1.4531 0.22656 1.4766 0.12109 0.73828 0.12109 0.74609 0.38672 2.2383 0.28125 1.5156 0.29688 1.5156 0.066406 0.29688zm-2.043-38.34c-0.35547 2.7344 2.25 4.8828 4.8711 4.0312 1.3711-0.45703 2.3438-1.6328 2.5312-3.0625l0.066406-0.53125 0.074219-0.57031 0.25781-1.6758 0.28125-1.6523 0.30469-1.6289 0.11328-0.54297 0.22656-1.0625 0.12109-0.53125 0.12109-0.52344 0.25781-1.0469 0.12891-0.51172 0.42188-1.5352 0.44531-1.5117 0.1875-0.59766c0.82031-2.5742-1.2617-5.1328-3.9492-4.8633-1.4766 0.16797-2.6992 1.1562-3.1562 2.5664l-0.21484 0.69922-0.33594 1.1016-0.32031 1.1172-0.14844 0.55859-0.29688 1.1406-0.14062 0.57031-0.14062 0.57812-0.38672 1.7344-0.24219 1.1797-0.11328 0.58984-0.22656 1.1953-0.20312 1.1953-0.28125 1.8164-0.17188 1.2344-0.066406 0.53125zm13.832-36.242c-1.5508 2.1172-0.50391 5.1133 2.0234 5.8164 1.5039 0.40234 3.0625-0.14062 3.9844-1.3906l0.1875-0.26172 0.84375-1.125 0.28906-0.375 0.86719-1.0898 0.89062-1.0664 0.29688-0.34375 0.92578-1.0312 1.2656-1.3438 0.31641-0.32812 0.65625-0.65625 0.65625-0.63281 0.67188-0.63281 0.67188-0.61719 0.34375-0.30859 0.34375-0.29688 0.28125-0.24219c2.0156-1.7539 1.6133-4.9766-0.78516-6.1797-1.3516-0.66406-2.9492-0.46484-4.0977 0.52344l-0.32812 0.28125-0.38281 0.33594-0.76562 0.6875-0.375 0.34375-1.125 1.0664-1.0898 1.0898-0.36328 0.375-1.0664 1.125-0.35547 0.38281-0.6875 0.76562-0.34375 0.39062-0.67188 0.78125-0.67188 0.80469-0.32812 0.40234-0.65625 0.82031-0.31641 0.41016-0.94922 1.2656-0.1875 0.26172zm30.727-23.848c-2.3789 0.96875-3.0977 3.9648-1.418 5.918 1.0547 1.2031 2.7266 1.6055 4.2188 1.0078l0.44922-0.17578 0.42969-0.17578 0.42969-0.16797 0.875-0.33594 1.75-0.64062 0.4375-0.14844 0.89844-0.29688 1.3477-0.42188 0.89844-0.25781 0.91406-0.25781 0.91406-0.24219 0.69922-0.1875 0.69922-0.17578 1.3984-0.33594 0.69141-0.16016 0.83203-0.1875c1.8672-0.40234 3.125-2.1367 2.9297-4.0312-0.23438-2.2109-2.3242-3.7227-4.5-3.2656l-0.92578 0.20703-0.73828 0.16797-0.73828 0.17578-1.4922 0.375-0.74609 0.19531-0.50391 0.12891-1.0078 0.28125-0.49609 0.14062-1.4883 0.44531-1.4883 0.48047-1.4531 0.50391-1.4531 0.52734-0.48438 0.1875-1.4297 0.5625-0.44922 0.17578zm37.949-7.0469c-2.707-0.039062-4.5469 2.6992-3.5 5.1875 0.58984 1.3633 1.8867 2.25 3.3789 2.2773l0.63281 0.007813 0.61719 0.007812 1.2109 0.039062 1.2109 0.054688 0.60547 0.039062 0.59766 0.039063 1.1953 0.09375 0.59766 0.054687 0.58984 0.054688 1.7695 0.19922 0.58984 0.074219 0.57812 0.074218 1.1562 0.17188 1.1562 0.1875 1.7109 0.30469c2.6133 0.49609 4.8906-1.8203 4.3594-4.4258-0.31641-1.4844-1.4648-2.6211-2.957-2.9023l-1.875-0.33984-0.625-0.10156-0.63281-0.10156-1.2656-0.1875-0.63281-0.085937-0.64453-0.085938-1.2891-0.14844-1.2891-0.13281-1.3047-0.10938-1.3047-0.09375-0.65234-0.039063-0.66406-0.039062-1.3281-0.054688-0.66406-0.019531-0.67187-0.007812-0.63281-0.007813zm37.594 9.0078c-2.4453-1.2148-5.3203 0.51172-5.3945 3.2461-0.027344 1.4648 0.75781 2.7812 2.0703 3.4336l0.55859 0.28125 0.49609 0.25391 1.4883 0.78516 0.49609 0.26953 0.96875 0.53906 1.4531 0.84375 0.48438 0.28906 0.95312 0.57812 1.4297 0.89062 0.47656 0.30859 0.92969 0.61719 1.3945 0.94922 0.46484 0.32812 0.45703 0.32812 0.1875 0.12891c2.0352 1.4648 4.8711 0.57812 5.7109-1.7812 0.54297-1.5664 0.007812-3.2773-1.3359-4.2578l-0.22266-0.16016-0.99219-0.71094-1.5117-1.0312-1.0078-0.67188-0.51172-0.33594-1.0234-0.65625-0.51172-0.31641-1.0469-0.63281-1.5703-0.92578-1.5938-0.89063-1.0625-0.57812-1.6289-0.84375-0.60547-0.29688zm30.539 23.379c-1.3164-1.4102-3.4727-1.5859-5.0039-0.41016-1.7461 1.3516-1.9609 3.8828-0.45703 5.5078l0.41016 0.4375 1.207 1.3125 0.39062 0.4375 1.5625 1.7969 0.78125 0.91406 1.1484 1.3711 1.1484 1.3945 0.375 0.46484 1.875 2.3828 0.47656 0.625c1.6133 2.1172 4.8438 1.9219 6.1992-0.375 0.75781-1.3164 0.66406-2.9219-0.25391-4.1328l-0.51172-0.67187-0.78125-1.0078-1.5625-1.9844-0.40234-0.49609-1.6094-1.9375-0.40234-0.47656-1.6406-1.9062-0.41016-0.46484-1.2656-1.3945-0.84375-0.91406-0.42969-0.46484zm22.551 30.668c-1.3633-2.2773-4.5742-2.4648-6.1875-0.35547-0.91406 1.2227-1.0078 2.8477-0.23438 4.1641 2.5 4.2188 4.8633 8.5195 7.1016 12.871 1.2305 2.3789 4.4805 2.7422 6.1992 0.67969 0.95312-1.168 1.1289-2.7422 0.44922-4.0898-2.3047-4.4883-4.75-8.9336-7.3281-13.273zm18.172 32.191c-1.0469-1.4453-2.9492-1.9492-4.5742-1.2227-2.1484 0.98828-2.8555 3.6602-1.4844 5.582 3.0039 4.1797 6.2891 8.1211 9.8086 11.883 1.8008 1.9023 4.9375 1.4375 6.0859-0.93359 0.67188-1.3984 0.42188-3.043-0.64453-4.1719-3.293-3.5195-6.3828-7.2227-9.1914-11.133zm25.508 24.891c-2.2773-1.3906-5.2188-0.039062-5.6484 2.5938-0.23438 1.5039 0.4375 2.9688 1.7344 3.7695l0.77344 0.48438 1.1016 0.66406 1.1016 0.64453 1.1094 0.625 1.1094 0.59766 1.1211 0.57812 1.1211 0.55859 1.1289 0.53125 1.1289 0.51172 1.1367 0.49609 1.1367 0.47656 1.1367 0.44922 0.89453 0.33594c2.5195 0.92578 5.1523-1.0273 5.0195-3.707-0.085938-1.5039-1.0352-2.7812-2.4375-3.3047l-0.78516-0.29688-1.0273-0.41016-1.0273-0.42969-1.0156-0.44922-1.0156-0.46484-1.0156-0.48438-1.0078-0.50391-1.0078-0.52344-1.0078-0.54297-1-0.55859-1-0.57812-1-0.59766-0.77344-0.48438zm33.395 10.434c-1.8945-0.054688-3.5195 1.2891-3.8086 3.1562-0.33594 2.2227 1.3242 4.2266 3.5664 4.3008l0.50391 0.019531 1.1758 0.027344 1.1758 0.007812 1.1758-0.007812 1.1758-0.019531 1.1758-0.039063 1.1758-0.054687 1.1758-0.074219 1.168-0.09375 1.168-0.10156 1.168-0.12109 1.168-0.14062 1.168-0.16016 1.0156-0.14844c2.7344-0.42969 4.0703-3.5664 2.4844-5.8438-0.83203-1.168-2.2109-1.7539-3.6211-1.5391l-0.92578 0.14063-1.0625 0.14062-1.0625 0.12891-1.0625 0.11328-1.0625 0.09375-1.0625 0.085938-1.0625 0.066406-1.0625 0.054687-1.0625 0.039063-1.0625 0.019531-1.0625 0.007813-1.0625-0.007813-1.0625-0.027344-0.50391-0.019531zm34.812-6.6719c-2.5 1.0625-3.0703 4.3203-1.0938 6.1797 1.082 1 2.6328 1.2773 3.9844 0.71094l0.55078-0.23438 1.1016-0.47656 1.1016-0.48438 1.1016-0.49609 1.0938-0.51172 1.0938-0.52344 1.082-0.53125 1.082-0.55078 1.0742-0.55859 1.0742-0.57031 1.0625-0.57812 1.0625-0.59766 1.0547-0.60547 0.28125-0.16797c2.2852-1.3711 2.4648-4.5938 0.32812-6.207-1.2227-0.90625-2.8281-0.98828-4.1445-0.21484l-0.21484 0.12891-0.98828 0.57031-1 0.55859-1 0.54297-1 0.53125-1.0078 0.52344-1.0078 0.51172-1.0156 0.50391-1.0156 0.48438-1.0156 0.47656-1.0273 0.46484-1.0273 0.44922-1.0273 0.4375-0.55078 0.23438zm30.566-19.012c-2.0703 1.8203-1.5508 5.1445 0.98047 6.2422 1.3359 0.57031 2.8281 0.32812 3.9297-0.61719l0.84766-0.72656 0.92578-0.8125 0.91406-0.82031 0.90625-0.83203 0.90625-0.83984 0.89453-0.84766 0.88672-0.85938 0.87891-0.85938 0.86719-0.86719 0.85938-0.87891 0.85938-0.88672 0.84766-0.89453 0.46484-0.49609c1.8008-1.9688 1.0469-5.1055-1.457-6.0391-1.4297-0.51172-2.9961-0.14062-4.0312 0.96875l-0.42188 0.44922-1.6016 1.6797-0.8125 0.83203-0.82031 0.82031-0.83203 0.8125-0.83984 0.8125-0.84766 0.80078-0.84766 0.79297-0.85938 0.78516-0.86719 0.77344-0.87891 0.76562-0.84766 0.72656zm23.836-27.168c-1.3984 2.1914-0.1875 5.1055 2.3633 5.6641 1.5312 0.31641 3.0781-0.31641 3.9297-1.6445l0.35547-0.54297 0.64453-1.0156 0.63281-1.0273 0.625-1.0273 0.60547-1.0352 0.59766-1.0352 0.58984-1.0352 0.57812-1.0469 0.57031-1.0469 0.55078-1.0547 0.54297-1.0547 0.53125-1.0547 0.51172-1.0625 0.19531-0.41016c1.1367-2.4648-0.61719-5.2734-3.332-5.3203-1.4766-0.007812-2.8008 0.8125-3.4336 2.1562l-0.16016 0.33594-0.48438 0.98828-0.49609 0.98828-0.50391 0.98828-0.51172 0.98047-0.53125 0.98047-0.54297 0.98047-0.55078 0.96875-0.55859 0.96875-0.57031 0.96875-0.58984 0.96094-0.59766 0.96094-0.60547 0.96094-0.35547 0.54297zm14.066-32.891c-0.52344 2.6055 1.7266 4.8984 4.3398 4.4258 1.5039-0.28906 2.6602-1.418 2.9688-2.9219l0.11328-0.53125 0.22266-1.1094 0.20703-1.1094 0.1875-1.1094 0.17578-1.1094 0.16016-1.1094 0.14062-1.1094 0.12891-1.1094 0.11328-1.1094 0.09375-1.1094 0.085938-1.1094 0.066406-1.1094 0.046875-1.1094 0.027344-1.1094 0.007813-0.58984c0.007812-2.8281-2.9961-4.6367-5.4961-3.3125-1.2148 0.65234-1.9609 1.8945-1.9688 3.2773l-0.007813 0.47656-0.027343 1-0.046876 1-0.054687 1-0.074219 1-0.085937 1-0.10156 1.0078-0.11328 1.0078-0.12891 1.0078-0.14844 1.0078-0.16016 1.0078-0.17578 1.0078-0.1875 1.0078-0.20703 1.0078-0.11328 0.53125zm-1.6992-34.719c0.94141 2.4453 4.0039 3.1914 5.9727 1.4648 1.1562-1.0469 1.5586-2.6602 1.0078-4.1172l-0.35547-0.96094-0.41016-1.0352-0.42969-1.0352-0.44922-1.0273-0.46484-1.0273-0.48438-1.0156-0.50391-1.0156-0.52344-1.0078-0.55078-1-0.57031-1-0.58984-0.98828-0.60547-0.98047-0.625-0.98047-0.64453-0.95312c-1.5586-2.2695-4.9375-2.1367-6.3203 0.24219-0.71875 1.2617-0.65234 2.7734 0.16016 3.9766l0.57031 0.83984 0.55859 0.85938 0.54297 0.86719 0.52344 0.86719 0.50391 0.87891 0.48438 0.88672 0.46484 0.88672 0.44922 0.89453 0.42969 0.89453 0.41016 0.90625 0.39063 0.90625 0.375 0.91406 0.35547 0.91406 0.35547 0.96094zm40.234-211.05 4.1992 2.043-2.043 4.1992-4.1992-2.043zm16.332-33.57 4.1992 2.043-2.043 4.1992-4.1992-2.043zm-8.168 16.781 4.1992 2.043-2.043 4.1992-4.1992-2.043zm-51.129 130.29-10.566-2.1289-14.188 29.215zm-15.766-8.3828 48.945-88.453c0.98828-1.793 3.2461-2.4453 5.0508-1.457 1.793 0.98828 2.4453 3.2461 1.457 5.0508l-46.629 84.262 86.484 17.414 3.0039-203.88-133.38 180.82 12.711 52.211 22.121-45.547c0.074219-0.14844 0.14844-0.28906 0.24219-0.42969zm88.023-185.67-190.81 153.59 62.301 20.625z"/>
  <use x="70" y="560.140625" xlink:href="#w"/>
  <use x="70.035156" y="560.140625" xlink:href="#e"/>
  <use x="70.058594" y="560.140625" xlink:href="#b"/>
  <use x="70.089844" y="560.140625" xlink:href="#a"/>
  <use x="70.121094" y="560.140625" xlink:href="#d"/>
  <use x="70.144531" y="560.140625" xlink:href="#b"/>
  <use x="70.175781" y="560.140625" xlink:href="#l"/>
  <use x="70.222656" y="560.140625" xlink:href="#k"/>
  <use x="70.257812" y="560.140625" xlink:href="#j"/>
  <use x="70.304688" y="560.140625" xlink:href="#i"/>
  <use x="70.34375" y="560.140625" xlink:href="#v"/>
  <use x="70.359375" y="560.140625" xlink:href="#b"/>
  <use x="70.390625" y="560.140625" xlink:href="#f"/>
  <use x="70.425781" y="560.140625" xlink:href="#a"/>
  <use x="70.472656" y="560.140625" xlink:href="#h"/>
  <use x="70.507812" y="560.140625" xlink:href="#a"/>
  <use x="70.539062" y="560.140625" xlink:href="#f"/>
  <use x="70.570312" y="560.140625" xlink:href="#a"/>
  <use x="70.601562" y="560.140625" xlink:href="#g"/>
  <use x="70.628906" y="560.140625" xlink:href="#c"/>
  <use x="70.664062" y="560.140625" xlink:href="#u"/>
  <use x="70.691406" y="560.140625" xlink:href="#g"/>
  <use x="70.722656" y="560.140625" xlink:href="#t"/>
  <use x="70.75" y="560.140625" xlink:href="#a"/>
  <use x="70" y="560.1875" xlink:href="#s"/>
  <use x="70.019531" y="560.1875" xlink:href="#e"/>
  <use x="70.042969" y="560.1875" xlink:href="#c"/>
  <use x="70.074219" y="560.1875" xlink:href="#r"/>
  <use x="70.140625" y="560.1875" xlink:href="#d"/>
  <use x="70.164062" y="560.1875" xlink:href="#q"/>
  <use x="70.195312" y="560.1875" xlink:href="#b"/>
  <use x="70.242188" y="560.1875" xlink:href="#p"/>
  <use x="70.28125" y="560.1875" xlink:href="#c"/>
  <use x="70.316406" y="560.1875" xlink:href="#o"/>
  <use x="70.347656" y="560.1875" xlink:href="#f"/>
  <use x="70.398438" y="560.1875" xlink:href="#h"/>
  <use x="70.433594" y="560.1875" xlink:href="#e"/>
  <use x="70.453125" y="560.1875" xlink:href="#c"/>
  <use x="70.488281" y="560.1875" xlink:href="#n"/>
  <use x="70.503906" y="560.1875" xlink:href="#b"/>
  <use x="70.535156" y="560.1875" xlink:href="#m"/>
  <use x="70.5625" y="560.1875" xlink:href="#d"/>
 </g>
</svg>
